<svg width="32" height="32" viewBox="0 0 32 32" fill="none" xmlns="http://www.w3.org/2000/svg">
<path d="M8.5 1H20.3333C24.067 1 25.9339 1 27.3599 1.72662C28.6143 2.36578 29.6342 3.38565 30.2734 4.64006C31 6.06614 31 7.93298 31 11.6667V23.5M6.33333 31H19.8333C21.7002 31 22.6336 31 23.3466 30.6367C23.9738 30.3171 24.4838 29.8072 24.8034 29.18C25.1667 28.4669 25.1667 27.5335 25.1667 25.6667V12.1667C25.1667 10.2998 25.1667 9.3664 24.8034 8.65336C24.4838 8.02616 23.9738 7.51622 23.3466 7.19664C22.6336 6.83333 21.7002 6.83333 19.8333 6.83333H6.33333C4.46649 6.83333 3.53307 6.83333 2.82003 7.19664C2.19282 7.51622 1.68289 8.02616 1.36331 8.65336C1 9.3664 1 10.2998 1 12.1667V25.6667C1 27.5335 1 28.4669 1.36331 29.18C1.68289 29.8072 2.19282 30.3171 2.82003 30.6367C3.53307 31 4.46649 31 6.33333 31Z" stroke="#60B15A" stroke-width="2" stroke-linecap="round" stroke-linejoin="round"/>
</svg>
