<svg width="47" height="47" viewBox="0 0 47 47" fill="none" xmlns="http://www.w3.org/2000/svg">
<path d="M22.4718 28.2294C22.7461 28.4963 23.1136 28.6456 23.4963 28.6456C23.879 28.6456 24.2465 28.4963 24.5207 28.2294L29.6614 23.2136C29.8101 23.0817 29.9305 22.921 30.0153 22.7413C30.1001 22.5615 30.1476 22.3664 30.1548 22.1678C30.162 21.9691 30.1288 21.7711 30.0572 21.5857C29.9856 21.4002 29.8771 21.2313 29.7383 21.089C29.5995 20.9467 29.4333 20.8341 29.2497 20.7579C29.0661 20.6818 28.869 20.6437 28.6702 20.6459C28.4714 20.6482 28.2752 20.6908 28.0934 20.7711C27.9116 20.8515 27.748 20.9679 27.6125 21.1133L24.9687 23.6909V12.4844C24.9687 12.0948 24.814 11.7213 24.5385 11.4458C24.2631 11.1704 23.8895 11.0156 23.5 11.0156C23.1104 11.0156 22.7368 11.1704 22.4614 11.4458C22.186 11.7213 22.0312 12.0948 22.0312 12.4844V23.6909L19.3875 21.1133C19.105 20.8629 18.7371 20.7308 18.3599 20.7445C17.9827 20.7582 17.6253 20.9165 17.3617 21.1867C17.0982 21.4568 16.9487 21.8181 16.9444 22.1955C16.9401 22.5729 17.0813 22.9375 17.3386 23.2136L22.4718 28.2294Z" fill="white"/>
<path d="M31.7544 26.6358C31.3648 26.6358 30.9912 26.7905 30.7158 27.066C30.4403 27.3414 30.2856 27.715 30.2856 28.1045V29.5733C30.2837 30.1057 30.0708 30.6156 29.6937 30.9914C29.3165 31.3671 28.8058 31.5781 28.2734 31.5781H18.7265C18.4623 31.5781 18.2006 31.5261 17.9565 31.425C17.7124 31.3238 17.4906 31.1756 17.3037 30.9888C17.1169 30.8019 16.9686 30.5801 16.8675 30.336C16.7664 30.0918 16.7144 29.8302 16.7144 29.5659V28.0972C16.7144 27.7077 16.5596 27.3341 16.2842 27.0586C16.0087 26.7832 15.6351 26.6284 15.2456 26.6284C14.8561 26.6284 14.4825 26.7832 14.207 27.0586C13.9316 27.3341 13.7769 27.7077 13.7769 28.0972V29.5659C13.7788 30.8781 14.3009 32.1359 15.2287 33.0638C16.1566 33.9916 17.4144 34.5137 18.7265 34.5156H28.2734C29.5856 34.5137 30.8434 33.9916 31.7712 33.0638C32.6991 32.1359 33.2212 30.8781 33.2231 29.5659V28.0972C33.2212 27.7089 33.0656 27.3372 32.7903 27.0634C32.5151 26.7895 32.1426 26.6358 31.7544 26.6358Z" fill="white"/>
<path d="M23.5 2.20312C19.2879 2.20313 15.1704 3.45216 11.6681 5.7923C8.16585 8.13243 5.43617 11.4585 3.82426 15.35C2.21235 19.2415 1.7906 23.5236 2.61235 27.6548C3.43409 31.786 5.46242 35.5807 8.44084 38.5592C11.4193 41.5376 15.214 43.5659 19.3452 44.3877C23.4764 45.2094 27.7585 44.7877 31.65 43.1757C35.5415 41.5638 38.8676 38.8342 41.2077 35.3319C43.5478 31.8297 44.7969 27.7121 44.7969 23.5C44.7969 17.8517 42.5531 12.4348 38.5592 8.44084C34.5652 4.4469 29.1483 2.20313 23.5 2.20312ZM23.5 41.8594C19.8689 41.8594 16.3193 40.7826 13.3001 38.7653C10.2809 36.7479 7.92774 33.8806 6.53816 30.5258C5.14858 27.1711 4.785 23.4796 5.4934 19.9183C6.20181 16.3569 7.95037 13.0856 10.518 10.518C13.0856 7.95036 16.3569 6.2018 19.9183 5.4934C23.4796 4.78499 27.1711 5.14857 30.5258 6.53815C33.8806 7.92773 36.7479 10.2809 38.7653 13.3001C40.7826 16.3193 41.8594 19.8689 41.8594 23.5C41.8594 25.911 41.3845 28.2984 40.4619 30.5258C39.5392 32.7533 38.1869 34.7772 36.482 36.482C34.7772 38.1869 32.7533 39.5392 30.5258 40.4619C28.2984 41.3845 25.911 41.8594 23.5 41.8594Z" fill="white"/>
</svg>
